<!--Adapted from material domain_disabled icon-->
<svg xmlns="http://www.w3.org/2000/svg" height="24" viewBox="0 0 24 24" width="24">
  <path d="M0 0h24v24H0V0z" fill="#FBBC04"/>
  <path fill="#202124"
        transform="scale(0.6666) translate(6 5.3)"
        d="M10 10L9 9 6 6 5 5 3 3l-.9-.9L.69 3.51 2 4.83V21h16.17l2.31 2.31 1.41-1.41-10.48-10.49L10 10zm-4 9H4v-2h2v2zm0-4H4v-2h2v2zm0-4H4V9h2v2zm4 8H8v-2h2v2zm0-4H8v-2h2v2zm2 2h2.17l2 2H12v-2zm0-10V3H5.83l2 2h2v2l2 2H20v8.17l2 2V7zm4 4h2v2h-2z"/>
</svg>
